<?xml version="1.0" encoding="utf-8"?>
<!-- Generator: Adobe Illustrator 21.1.0, SVG Export Plug-In . SVG Version: 6.00 Build 0)  -->
<svg version="1.1" id="Layer_1" xmlns="http://www.w3.org/2000/svg" xmlns:xlink="http://www.w3.org/1999/xlink" x="0px" y="0px"
	 viewBox="0 0 143 40" style="enable-background:new 0 0 143 40;" xml:space="preserve">
<style type="text/css">
	.st0{display:none;stroke:#000000;stroke-miterlimit:10;}
	.st1{fill:#FFFFFF;}
	.st2{clip-path:url(#SVGID_2_);}
	.st3{clip-path:url(#SVGID_4_);fill:#FFFFFF;}
	.st4{display:none;}
	.st5{display:inline;fill:#FFFFFF;}
	.st6{font-family:'DroidSerif';}
	.st7{font-size:11px;}
</style>
<rect x="-33.2" y="-7.5" class="st0" width="202" height="62.5"/>
<title>Artboard 1</title>
<path class="st1" d="M2.5,2.8h7.1l11.3,29c1.4,3.5,2.3,4.5,5.8,4.5v0.8H14v-0.8c4.3,0,4.7-1.2,3.6-4.5l-1.7-4.7h-9v-1.5h8.4
	c0,0-4.8-12.8-6.3-17.1C8.5,7.3,7.8,5.1,6.5,4.3C5.5,3.6,2.5,3.7,2.5,3.7L2.5,2.8z M23.2,22.7c9,0,14.4-2.7,14.4-10
	c0-7.8-6.7-9.8-14.4-9.8v1.3c4.6,0,10.9,1,10.9,8.4c0,8.9-7.5,9-10.9,9V22.7z M18.5,21.6V8.2c0-3.3-0.1-4.5-4.7-4.5V2.8h7.9v26.9
	L18.5,21.6z"/>
<g>
	<defs>
		<rect id="SVGID_1_" x="51.6" y="10" width="0.5" height="20"/>
	</defs>
	<clipPath id="SVGID_2_">
		<use xlink:href="#SVGID_1_"  style="overflow:visible;"/>
	</clipPath>
	<g class="st2">
		<defs>
			<rect id="SVGID_3_" x="-122.4" y="-35" width="375" height="667"/>
		</defs>
		<clipPath id="SVGID_4_">
			<use xlink:href="#SVGID_3_"  style="overflow:visible;"/>
		</clipPath>
		<rect x="46.6" y="5" class="st3" width="10.5" height="30"/>
	</g>
</g>
<g class="st4">
	<text transform="matrix(1 0 0 1 66.8242 23.1797)" class="st5 st6 st7">design studio</text>
</g>
<path class="st1" d="M72.4,22c0,0.2,0,0.3,0.1,0.4c0,0.1,0.1,0.2,0.2,0.2c0.1,0.1,0.2,0.1,0.3,0.1c0.1,0,0.2,0,0.3,0h0.1v0.5h-1.9
	l-0.1-1h0c-0.1,0.2-0.2,0.3-0.3,0.5c-0.1,0.1-0.2,0.2-0.4,0.3c-0.1,0.1-0.3,0.2-0.5,0.2s-0.4,0.1-0.6,0.1c-0.4,0-0.7-0.1-1-0.2
	s-0.5-0.3-0.7-0.6c-0.2-0.2-0.3-0.6-0.4-0.9c-0.1-0.4-0.1-0.8-0.1-1.4c0-0.5,0-1,0.1-1.4s0.2-0.7,0.4-1c0.2-0.2,0.4-0.4,0.7-0.6
	s0.6-0.2,1-0.2c0.2,0,0.4,0,0.6,0.1c0.2,0,0.3,0.1,0.5,0.2s0.3,0.2,0.4,0.3c0.1,0.1,0.2,0.2,0.3,0.4h0.1c0-0.2,0-0.3,0-0.5
	c0-0.1,0-0.3,0-0.4c0-0.1,0-0.2,0-0.3V16c0-0.2,0-0.3-0.1-0.4c0-0.1-0.1-0.2-0.2-0.2c-0.1-0.1-0.2-0.1-0.3-0.1c-0.1,0-0.2,0-0.3,0
	h-0.1v-0.5h2V22z M69.9,22.6c0.3,0,0.5,0,0.7-0.1c0.2-0.1,0.3-0.2,0.5-0.4c0.1-0.2,0.2-0.4,0.2-0.7c0-0.3,0.1-0.6,0.1-1
	c0-0.4,0-0.7-0.1-1c0-0.3-0.1-0.5-0.2-0.7c-0.1-0.2-0.3-0.4-0.5-0.5s-0.4-0.2-0.7-0.2c-0.2,0-0.4,0.1-0.6,0.2s-0.3,0.3-0.4,0.5
	c-0.1,0.2-0.2,0.4-0.2,0.7c0,0.3-0.1,0.6-0.1,1c0,0.8,0.1,1.4,0.3,1.8C69,22.4,69.4,22.6,69.9,22.6z"/>
<path class="st1" d="M77,23.3c-0.4,0-0.8-0.1-1.1-0.2c-0.3-0.1-0.6-0.3-0.8-0.6c-0.2-0.3-0.4-0.6-0.5-0.9s-0.2-0.8-0.2-1.3
	c0-1,0.2-1.8,0.6-2.3c0.4-0.5,1-0.8,1.8-0.8c0.4,0,0.7,0.1,1,0.2c0.3,0.1,0.5,0.3,0.7,0.5c0.2,0.2,0.3,0.5,0.5,0.8
	c0.1,0.3,0.2,0.7,0.2,1.1v0.5h-3.7c0,0.4,0,0.7,0.1,1s0.2,0.5,0.3,0.7c0.1,0.2,0.3,0.3,0.5,0.4c0.2,0.1,0.4,0.1,0.7,0.1
	c0.2,0,0.4,0,0.5-0.1c0.2,0,0.3-0.1,0.4-0.2c0.1-0.1,0.2-0.2,0.4-0.2c0.1-0.1,0.2-0.2,0.2-0.3c0.1,0,0.1,0.1,0.1,0.1
	c0,0.1,0.1,0.1,0.1,0.2c0,0.1,0,0.2-0.1,0.4c-0.1,0.1-0.2,0.2-0.4,0.4s-0.4,0.2-0.6,0.3C77.6,23.3,77.3,23.3,77,23.3z M76.8,17.8
	c-0.4,0-0.7,0.2-0.9,0.5c-0.2,0.3-0.3,0.8-0.4,1.5H78c0-0.3,0-0.6-0.1-0.8c0-0.2-0.1-0.4-0.2-0.6c-0.1-0.2-0.2-0.3-0.4-0.4
	S77,17.8,76.8,17.8z"/>
<path class="st1" d="M82.2,23.3c-0.3,0-0.5,0-0.7-0.1c-0.2,0-0.4-0.1-0.6-0.2c-0.2-0.1-0.3-0.2-0.4-0.4c-0.1-0.1-0.1-0.3-0.1-0.5
	c0-0.1,0-0.3,0.1-0.4c0-0.1,0.1-0.2,0.2-0.2c0.1-0.1,0.1-0.1,0.2-0.1c0.1,0,0.2,0,0.2,0c0,0.2,0,0.4,0.1,0.5c0,0.2,0.1,0.3,0.2,0.4
	c0.1,0.1,0.2,0.2,0.4,0.3s0.3,0.1,0.6,0.1c0.2,0,0.4,0,0.5-0.1c0.2,0,0.3-0.1,0.4-0.2c0.1-0.1,0.2-0.2,0.2-0.3
	c0.1-0.1,0.1-0.3,0.1-0.4c0-0.1,0-0.3-0.1-0.4c0-0.1-0.1-0.2-0.2-0.3C83.1,21,83,21,82.8,20.9c-0.2-0.1-0.4-0.2-0.7-0.3
	c-0.3-0.1-0.5-0.2-0.7-0.4c-0.2-0.1-0.4-0.2-0.5-0.4c-0.1-0.1-0.2-0.3-0.3-0.5c-0.1-0.2-0.1-0.4-0.1-0.6c0-0.3,0-0.5,0.1-0.7
	s0.2-0.4,0.4-0.5s0.4-0.2,0.7-0.3c0.3-0.1,0.5-0.1,0.8-0.1c0.3,0,0.5,0,0.7,0.1c0.2,0.1,0.4,0.1,0.5,0.2c0.1,0.1,0.2,0.2,0.3,0.3
	c0.1,0.1,0.1,0.3,0.1,0.4c0,0.2-0.1,0.4-0.2,0.5c-0.1,0.1-0.3,0.2-0.6,0.2c0-0.4-0.1-0.7-0.2-0.9c-0.2-0.2-0.4-0.3-0.7-0.3
	c-0.2,0-0.3,0-0.5,0.1c-0.1,0-0.2,0.1-0.3,0.2s-0.1,0.2-0.2,0.3c0,0.1-0.1,0.2-0.1,0.4c0,0.1,0,0.3,0.1,0.4c0,0.1,0.1,0.2,0.2,0.3
	c0.1,0.1,0.2,0.2,0.4,0.2c0.2,0.1,0.4,0.2,0.6,0.3c0.3,0.1,0.5,0.2,0.7,0.4c0.2,0.1,0.4,0.2,0.5,0.4c0.1,0.1,0.2,0.3,0.3,0.5
	s0.1,0.4,0.1,0.6c0,0.3-0.1,0.5-0.2,0.8c-0.1,0.2-0.2,0.4-0.4,0.5c-0.2,0.1-0.4,0.3-0.7,0.3S82.5,23.3,82.2,23.3z"/>
<path class="st1" d="M85.5,22.7c0.1,0,0.2,0,0.3,0c0.1,0,0.2,0,0.3-0.1c0.1,0,0.1-0.1,0.2-0.2c0-0.1,0.1-0.2,0.1-0.4v-3.5
	c0-0.2,0-0.3-0.1-0.4c0-0.1-0.1-0.2-0.2-0.2c-0.1-0.1-0.2-0.1-0.3-0.1c-0.1,0-0.2,0-0.3,0h0v-0.5h2v4.6c0,0.2,0,0.3,0.1,0.4
	c0,0.1,0.1,0.2,0.2,0.2c0.1,0.1,0.2,0.1,0.3,0.1c0.1,0,0.2,0,0.3,0h0.1v0.5h-3.1v-0.5H85.5z M86.2,15.5c0-0.1,0-0.2,0-0.3
	s0.1-0.2,0.1-0.2c0.1-0.1,0.1-0.1,0.2-0.1s0.2,0,0.2,0c0.1,0,0.2,0,0.2,0s0.1,0.1,0.2,0.1c0.1,0.1,0.1,0.1,0.1,0.2s0.1,0.2,0.1,0.3
	s0,0.2-0.1,0.3S87.4,16,87.3,16c-0.1,0.1-0.1,0.1-0.2,0.1s-0.2,0-0.2,0c-0.1,0-0.2,0-0.2,0s-0.1-0.1-0.2-0.1
	c-0.1-0.1-0.1-0.1-0.1-0.2S86.2,15.6,86.2,15.5z"/>
<path class="st1" d="M94.6,17.5c0,0.1,0,0.2,0,0.2c0,0.1-0.1,0.1-0.1,0.2c0,0.1-0.1,0.1-0.2,0.1s-0.2,0-0.3,0c0,0,0-0.1,0-0.1
	s0-0.1-0.1-0.1c0,0-0.1-0.1-0.1-0.1c0,0-0.1,0-0.2,0c-0.1,0-0.2,0-0.3,0s-0.1,0.1-0.2,0.1c0.1,0.2,0.2,0.3,0.3,0.5
	c0.1,0.2,0.1,0.5,0.1,0.8c0,0.3,0,0.5-0.1,0.8c-0.1,0.2-0.2,0.4-0.4,0.6c-0.2,0.2-0.4,0.3-0.6,0.4c-0.2,0.1-0.5,0.1-0.9,0.1
	c0,0-0.1,0-0.1,0s-0.1,0-0.2,0s-0.1,0-0.2,0c0,0-0.1,0-0.1,0c-0.1,0-0.1,0.1-0.2,0.1s-0.1,0.1-0.2,0.1c0,0.1-0.1,0.1-0.1,0.2
	c0,0.1,0,0.1,0,0.2c0,0.1,0,0.2,0.1,0.2c0,0.1,0.1,0.1,0.1,0.1c0.1,0,0.1,0.1,0.2,0.1s0.2,0,0.3,0h1.2c0.3,0,0.6,0,0.8,0.1
	c0.2,0.1,0.4,0.2,0.6,0.3c0.1,0.1,0.2,0.3,0.3,0.5s0.1,0.4,0.1,0.7c0,0.3-0.1,0.6-0.2,0.9s-0.3,0.5-0.5,0.6
	c-0.2,0.2-0.5,0.3-0.9,0.4c-0.4,0.1-0.8,0.1-1.3,0.1c-0.8,0-1.3-0.1-1.7-0.4c-0.4-0.3-0.6-0.7-0.6-1.2c0-0.2,0-0.4,0.1-0.6
	s0.2-0.3,0.3-0.4c0.1-0.1,0.3-0.2,0.4-0.3c0.2-0.1,0.3-0.1,0.5-0.2c-0.1,0-0.1-0.1-0.2-0.1c-0.1-0.1-0.1-0.1-0.2-0.2
	c-0.1-0.1-0.1-0.2-0.1-0.3c0-0.1-0.1-0.2-0.1-0.3c0-0.2,0.1-0.4,0.2-0.6c0.1-0.2,0.3-0.3,0.5-0.5c-0.2-0.1-0.3-0.2-0.4-0.3
	c-0.1-0.1-0.2-0.2-0.3-0.4c-0.1-0.1-0.1-0.3-0.2-0.5s-0.1-0.3-0.1-0.5c0-0.3,0-0.6,0.1-0.9s0.2-0.5,0.4-0.6c0.2-0.2,0.4-0.3,0.6-0.4
	s0.6-0.1,0.9-0.1c0.1,0,0.3,0,0.4,0s0.2,0,0.4,0.1s0.2,0.1,0.3,0.1c0.1,0,0.2,0.1,0.2,0.1c0.1-0.1,0.1-0.1,0.2-0.2
	c0.1-0.1,0.2-0.1,0.2-0.2c0.1-0.1,0.2-0.1,0.3-0.1c0.1,0,0.2-0.1,0.3-0.1c0.1,0,0.2,0,0.3,0c0.1,0,0.1,0.1,0.2,0.1s0.1,0.1,0.1,0.2
	C94.6,17.4,94.6,17.4,94.6,17.5z M90,24.1c0,0.2,0,0.3,0.1,0.5s0.1,0.3,0.2,0.4c0.1,0.1,0.3,0.2,0.4,0.2c0.2,0.1,0.4,0.1,0.7,0.1
	c0.4,0,0.7,0,1-0.1c0.3-0.1,0.5-0.2,0.6-0.3c0.2-0.1,0.3-0.3,0.3-0.4c0.1-0.2,0.1-0.3,0.1-0.5c0-0.2,0-0.3-0.1-0.4
	c0-0.1-0.1-0.2-0.2-0.3c-0.1-0.1-0.2-0.1-0.4-0.1c-0.1,0-0.3,0-0.5,0h-1.1c-0.2,0-0.3,0-0.4,0c-0.1,0-0.3,0.1-0.4,0.2
	c-0.1,0.1-0.2,0.2-0.3,0.3C90,23.8,90,23.9,90,24.1z M90.6,19.2c0,0.5,0.1,0.8,0.2,1c0.2,0.2,0.4,0.3,0.8,0.3c0.2,0,0.3,0,0.5-0.1
	c0.1-0.1,0.2-0.1,0.3-0.2c0.1-0.1,0.1-0.3,0.2-0.4c0-0.2,0.1-0.4,0.1-0.6c0-0.5-0.1-0.9-0.2-1.1s-0.4-0.4-0.8-0.4
	c-0.4,0-0.6,0.1-0.8,0.4C90.7,18.3,90.6,18.7,90.6,19.2z"/>
<path class="st1" d="M98.2,22.7v0.5h-3v-0.5h0.1c0.1,0,0.2,0,0.4,0c0.1,0,0.2-0.1,0.3-0.1c0.1-0.1,0.1-0.1,0.2-0.2
	c0-0.1,0.1-0.2,0.1-0.4v-3.4c0-0.2,0-0.3-0.1-0.4c0-0.1-0.1-0.2-0.2-0.2c-0.1-0.1-0.2-0.1-0.3-0.1c-0.1,0-0.2,0-0.3,0h0v-0.5h1.8
	l0.1,0.9h0.1c0.1-0.2,0.2-0.4,0.4-0.5c0.1-0.1,0.3-0.2,0.4-0.3s0.3-0.1,0.5-0.2c0.2,0,0.3,0,0.5,0c0.3,0,0.5,0,0.8,0.1
	s0.4,0.2,0.6,0.4s0.3,0.4,0.4,0.7s0.1,0.6,0.1,1v2.6c0,0.2,0,0.3,0.1,0.4c0,0.1,0.1,0.2,0.2,0.2s0.2,0.1,0.3,0.1c0.1,0,0.2,0,0.3,0
	h0v0.5h-1.9v-3.8c0-0.2,0-0.5-0.1-0.6s-0.1-0.3-0.2-0.5S99.3,18,99.2,18c-0.2-0.1-0.3-0.1-0.6-0.1c-0.2,0-0.5,0-0.6,0.1
	s-0.3,0.2-0.4,0.4c-0.1,0.2-0.2,0.4-0.2,0.6s-0.1,0.4-0.1,0.7V22c0,0.2,0,0.3,0.1,0.4c0,0.1,0.1,0.2,0.2,0.2
	c0.1,0.1,0.2,0.1,0.3,0.1C98,22.7,98.1,22.7,98.2,22.7L98.2,22.7z"/>
<path class="st1" d="M107.7,23.3c-0.3,0-0.5,0-0.7-0.1c-0.2,0-0.4-0.1-0.6-0.2c-0.2-0.1-0.3-0.2-0.4-0.4c-0.1-0.1-0.1-0.3-0.1-0.5
	c0-0.1,0-0.3,0.1-0.4c0-0.1,0.1-0.2,0.2-0.2c0.1-0.1,0.1-0.1,0.2-0.1c0.1,0,0.2,0,0.2,0c0,0.2,0,0.4,0.1,0.5c0,0.2,0.1,0.3,0.2,0.4
	c0.1,0.1,0.2,0.2,0.4,0.3c0.2,0.1,0.3,0.1,0.6,0.1c0.2,0,0.4,0,0.5-0.1c0.2,0,0.3-0.1,0.4-0.2c0.1-0.1,0.2-0.2,0.2-0.3
	c0.1-0.1,0.1-0.3,0.1-0.4c0-0.1,0-0.3-0.1-0.4s-0.1-0.2-0.2-0.3c-0.1-0.1-0.2-0.2-0.4-0.3c-0.2-0.1-0.4-0.2-0.7-0.3
	c-0.3-0.1-0.5-0.2-0.7-0.4c-0.2-0.1-0.4-0.2-0.5-0.4c-0.1-0.1-0.2-0.3-0.3-0.5c-0.1-0.2-0.1-0.4-0.1-0.6c0-0.3,0-0.5,0.1-0.7
	c0.1-0.2,0.2-0.4,0.4-0.5s0.4-0.2,0.7-0.3c0.3-0.1,0.5-0.1,0.8-0.1c0.3,0,0.5,0,0.7,0.1c0.2,0.1,0.4,0.1,0.5,0.2
	c0.1,0.1,0.2,0.2,0.3,0.3c0.1,0.1,0.1,0.3,0.1,0.4c0,0.2-0.1,0.4-0.2,0.5s-0.3,0.2-0.6,0.2c0-0.4-0.1-0.7-0.2-0.9
	c-0.2-0.2-0.4-0.3-0.7-0.3c-0.2,0-0.3,0-0.5,0.1c-0.1,0-0.2,0.1-0.3,0.2c-0.1,0.1-0.1,0.2-0.2,0.3c0,0.1-0.1,0.2-0.1,0.4
	c0,0.1,0,0.3,0.1,0.4c0.1,0.1,0.1,0.2,0.2,0.3s0.3,0.2,0.4,0.2c0.2,0.1,0.4,0.2,0.6,0.3c0.3,0.1,0.5,0.2,0.7,0.4
	c0.2,0.1,0.4,0.2,0.5,0.4c0.1,0.1,0.2,0.3,0.3,0.5s0.1,0.4,0.1,0.6c0,0.3-0.1,0.5-0.2,0.8c-0.1,0.2-0.3,0.4-0.4,0.5
	c-0.2,0.1-0.4,0.3-0.7,0.3C108.3,23.3,108,23.3,107.7,23.3z"/>
<path class="st1" d="M113.5,22.7c0.1,0,0.3,0,0.4,0c0.1,0,0.2,0,0.3-0.1v0.5c0,0-0.1,0-0.2,0.1s-0.2,0-0.2,0.1c-0.1,0-0.2,0-0.3,0
	s-0.2,0-0.3,0c-0.3,0-0.5,0-0.7-0.1c-0.2-0.1-0.4-0.2-0.5-0.3s-0.2-0.3-0.3-0.5s-0.1-0.5-0.1-0.8v-3.7h-0.8v-0.4
	c0.1,0,0.3,0,0.4-0.1s0.3-0.1,0.4-0.3c0.1-0.1,0.2-0.3,0.3-0.5c0.1-0.2,0.1-0.4,0.2-0.7h0.5v1.4h1.4v0.6h-1.4v3.7
	c0,0.4,0.1,0.7,0.2,0.8C113,22.6,113.2,22.7,113.5,22.7z"/>
<path class="st1" d="M120.4,22c0,0.2,0,0.3,0.1,0.4c0,0.1,0.1,0.2,0.2,0.2c0.1,0.1,0.2,0.1,0.3,0.1c0.1,0,0.2,0,0.3,0h0v0.5h-1.7
	l-0.1-0.9h-0.1c-0.1,0.2-0.2,0.4-0.4,0.5c-0.1,0.1-0.3,0.2-0.4,0.3s-0.3,0.1-0.5,0.2c-0.2,0-0.3,0-0.5,0c-0.3,0-0.5,0-0.8-0.1
	c-0.2-0.1-0.4-0.2-0.6-0.4c-0.2-0.2-0.3-0.4-0.4-0.7c-0.1-0.3-0.1-0.6-0.1-1v-2.6c0-0.2,0-0.3-0.1-0.4c0-0.1-0.1-0.2-0.2-0.2
	c-0.1-0.1-0.2-0.1-0.3-0.1c-0.1,0-0.2,0-0.3,0h0v-0.5h2v3.8c0,0.2,0,0.5,0.1,0.6c0,0.2,0.1,0.3,0.2,0.5c0.1,0.1,0.2,0.2,0.4,0.3
	c0.1,0.1,0.3,0.1,0.6,0.1c0.2,0,0.5,0,0.6-0.1c0.2-0.1,0.3-0.2,0.4-0.4c0.1-0.2,0.2-0.3,0.2-0.6c0.1-0.2,0.1-0.5,0.1-0.7v-2.3
	c0-0.2,0-0.3-0.1-0.4c0-0.1-0.1-0.2-0.2-0.2c-0.1-0.1-0.2-0.1-0.3-0.1c-0.1,0-0.2,0-0.4,0h0v-0.5h2V22z"/>
<path class="st1" d="M127.4,22c0,0.2,0,0.3,0.1,0.4c0,0.1,0.1,0.2,0.2,0.2c0.1,0.1,0.2,0.1,0.3,0.1c0.1,0,0.2,0,0.3,0h0.1v0.5h-1.9
	l-0.1-1h0c-0.1,0.2-0.2,0.3-0.3,0.5c-0.1,0.1-0.2,0.2-0.4,0.3c-0.1,0.1-0.3,0.2-0.5,0.2s-0.4,0.1-0.6,0.1c-0.4,0-0.7-0.1-1-0.2
	s-0.5-0.3-0.7-0.6c-0.2-0.2-0.3-0.6-0.4-0.9c-0.1-0.4-0.1-0.8-0.1-1.4c0-0.5,0-1,0.1-1.4s0.2-0.7,0.4-1c0.2-0.2,0.4-0.4,0.7-0.6
	s0.6-0.2,1-0.2c0.2,0,0.4,0,0.6,0.1c0.2,0,0.3,0.1,0.5,0.2s0.3,0.2,0.4,0.3c0.1,0.1,0.2,0.2,0.3,0.4h0.1c0-0.2,0-0.3,0-0.5
	c0-0.1,0-0.3,0-0.4c0-0.1,0-0.2,0-0.3V16c0-0.2,0-0.3-0.1-0.4c0-0.1-0.1-0.2-0.2-0.2c-0.1-0.1-0.2-0.1-0.3-0.1c-0.1,0-0.2,0-0.3,0
	h-0.1v-0.5h2V22z M124.9,22.6c0.3,0,0.5,0,0.7-0.1c0.2-0.1,0.3-0.2,0.5-0.4c0.1-0.2,0.2-0.4,0.2-0.7c0-0.3,0.1-0.6,0.1-1
	c0-0.4,0-0.7-0.1-1c0-0.3-0.1-0.5-0.2-0.7c-0.1-0.2-0.3-0.4-0.5-0.5s-0.4-0.2-0.7-0.2c-0.2,0-0.4,0.1-0.6,0.2s-0.3,0.3-0.4,0.5
	c-0.1,0.2-0.2,0.4-0.2,0.7c0,0.3-0.1,0.6-0.1,1c0,0.8,0.1,1.4,0.3,1.8C124,22.4,124.4,22.6,124.9,22.6z"/>
<path class="st1" d="M129.2,22.7c0.1,0,0.2,0,0.3,0c0.1,0,0.2,0,0.3-0.1c0.1,0,0.1-0.1,0.2-0.2c0-0.1,0.1-0.2,0.1-0.4v-3.5
	c0-0.2,0-0.3-0.1-0.4c0-0.1-0.1-0.2-0.2-0.2c-0.1-0.1-0.2-0.1-0.3-0.1c-0.1,0-0.2,0-0.3,0h0v-0.5h2v4.6c0,0.2,0,0.3,0.1,0.4
	c0,0.1,0.1,0.2,0.2,0.2c0.1,0.1,0.2,0.1,0.3,0.1c0.1,0,0.2,0,0.3,0h0.1v0.5h-3.1v-0.5H129.2z M129.9,15.5c0-0.1,0-0.2,0-0.3
	s0.1-0.2,0.1-0.2c0.1-0.1,0.1-0.1,0.2-0.1s0.2,0,0.2,0c0.1,0,0.2,0,0.2,0s0.1,0.1,0.2,0.1c0.1,0.1,0.1,0.1,0.1,0.2s0.1,0.2,0.1,0.3
	s0,0.2-0.1,0.3S131.1,16,131,16c-0.1,0.1-0.1,0.1-0.2,0.1s-0.2,0-0.2,0c-0.1,0-0.2,0-0.2,0s-0.1-0.1-0.2-0.1
	c-0.1-0.1-0.1-0.1-0.1-0.2S129.9,15.6,129.9,15.5z"/>
<path class="st1" d="M138.3,20.2c0,1-0.2,1.8-0.7,2.3c-0.4,0.5-1.1,0.8-1.9,0.8c-0.4,0-0.8-0.1-1.1-0.2c-0.3-0.1-0.6-0.3-0.8-0.6
	c-0.2-0.3-0.4-0.6-0.5-1c-0.1-0.4-0.2-0.8-0.2-1.4c0-1,0.2-1.8,0.7-2.3c0.4-0.5,1.1-0.8,1.9-0.8c0.4,0,0.8,0.1,1.1,0.2
	c0.3,0.1,0.6,0.3,0.8,0.6c0.2,0.3,0.4,0.6,0.5,1C138.2,19.3,138.3,19.7,138.3,20.2z M134.2,20.2c0,0.4,0,0.8,0.1,1.1
	s0.1,0.6,0.3,0.8c0.1,0.2,0.3,0.4,0.5,0.5c0.2,0.1,0.4,0.2,0.7,0.2c0.3,0,0.5-0.1,0.7-0.2c0.2-0.1,0.3-0.3,0.5-0.5
	c0.1-0.2,0.2-0.5,0.3-0.8c0.1-0.3,0.1-0.7,0.1-1.1s0-0.8-0.1-1.1c-0.1-0.3-0.1-0.6-0.3-0.8s-0.3-0.4-0.5-0.5
	c-0.2-0.1-0.4-0.2-0.7-0.2c-0.3,0-0.5,0.1-0.7,0.2c-0.2,0.1-0.3,0.3-0.5,0.5s-0.2,0.5-0.3,0.8C134.2,19.5,134.2,19.8,134.2,20.2z"/>
</svg>
