<svg xmlns="http://www.w3.org/2000/svg" width="40" height="40" viewBox="0 0 40 40"><title>Artboard 1</title><path d="M2.47,2.82H9.6l11.32,29c1.35,3.53,2.27,4.5,5.76,4.5v.82H14v-.82c4.31,0,4.69-1.21,3.58-4.55l-1.74-4.74h-9v-1.5h8.42S10.45,12.7,8.92,8.39c-.4-1.12-1.14-3.3-2.39-4.12-1.06-.7-4.05-.62-4.05-.62ZM23.16,22.66c9,0,14.37-2.66,14.37-10,0-7.79-6.73-9.82-14.37-9.82V4.19c4.63,0,10.93,1,10.93,8.45,0,8.85-7.45,9-10.93,9ZM18.5,21.53V8.15c0-3.29-.15-4.5-4.74-4.5V2.82h7.89V29.68Z" fill="#fff"/></svg>