<svg xmlns="http://www.w3.org/2000/svg" xmlns:xlink="http://www.w3.org/1999/xlink" width="143" height="40" viewBox="0 0 143 40"><defs><clipPath id="a"><rect x="51.64" y="10" width="0.5" height="20" fill="none"/></clipPath><clipPath id="b"><rect x="-122.36" y="-35" width="375" height="667" fill="none"/></clipPath></defs><title>logo1</title><path d="M2.47,2.84H9.6l11.32,29c1.35,3.53,2.27,4.5,5.76,4.5v.82H14v-.82c4.31,0,4.69-1.21,3.58-4.55l-1.74-4.74h-9v-1.5h8.42S10.45,12.72,8.92,8.41c-.4-1.12-1.14-3.3-2.39-4.12-1.06-.7-4.05-.62-4.05-.62ZM23.16,22.68c9,0,14.37-2.66,14.37-10,0-7.79-6.73-9.82-14.37-9.82V4.21c4.63,0,10.93,1,10.93,8.45,0,8.85-7.45,9-10.93,9ZM18.5,21.55V8.17c0-3.29-.15-4.5-4.74-4.5V2.84h7.89V29.7Z" fill="#fff"/><g clip-path="url(#a)"><g clip-path="url(#b)"><rect x="46.64" y="5" width="10.5" height="30" fill="#fff"/></g></g><path d="M72.39,22a.89.89,0,0,0,.07.39.56.56,0,0,0,.2.23.7.7,0,0,0,.29.1l.35,0h.09v.46H71.52l-.12-1h0a2.61,2.61,0,0,1-.28.45,1.7,1.7,0,0,1-.36.34,1.63,1.63,0,0,1-.46.22,2,2,0,0,1-.58.08,2.41,2.41,0,0,1-1-.18,1.73,1.73,0,0,1-.7-.55,2.58,2.58,0,0,1-.43-.95,5.62,5.62,0,0,1-.15-1.36,5.72,5.72,0,0,1,.15-1.37,2.62,2.62,0,0,1,.43-1,1.73,1.73,0,0,1,.7-.56,2.41,2.41,0,0,1,1-.18,2.22,2.22,0,0,1,.57.07,1.74,1.74,0,0,1,.46.2,1.71,1.71,0,0,1,.37.31,2,2,0,0,1,.28.39h.06c0-.18,0-.35,0-.5s0-.27,0-.41,0-.23,0-.3V16a.89.89,0,0,0-.07-.39.57.57,0,0,0-.2-.23.71.71,0,0,0-.29-.1l-.35,0h-.09v-.46h2Zm-2.53.61a1.61,1.61,0,0,0,.72-.14A1.11,1.11,0,0,0,71,22a2.07,2.07,0,0,0,.25-.73,6.53,6.53,0,0,0,.07-1,6.37,6.37,0,0,0-.07-1,2.15,2.15,0,0,0-.25-.74,1.18,1.18,0,0,0-.46-.45,1.53,1.53,0,0,0-.73-.16,1.1,1.1,0,0,0-1,.61,2.42,2.42,0,0,0-.24.74,6.18,6.18,0,0,0-.08,1A3.76,3.76,0,0,0,68.81,22,1.1,1.1,0,0,0,69.86,22.58Z" fill="#fff"/><path d="M77,23.29a2.73,2.73,0,0,1-1.07-.2,2.13,2.13,0,0,1-.8-.59,2.69,2.69,0,0,1-.5-.95,4.3,4.3,0,0,1-.17-1.28A3.62,3.62,0,0,1,75,18a2.2,2.2,0,0,1,1.8-.78,2.59,2.59,0,0,1,1,.17,1.85,1.85,0,0,1,.72.5,2.24,2.24,0,0,1,.45.82,3.73,3.73,0,0,1,.16,1.14v.51H75.47a4.61,4.61,0,0,0,.12,1,2,2,0,0,0,.32.71,1.25,1.25,0,0,0,.51.41,1.72,1.72,0,0,0,.69.13,2.07,2.07,0,0,0,.53-.06,2,2,0,0,0,.44-.17,1.8,1.8,0,0,0,.35-.24,1.4,1.4,0,0,0,.25-.29.34.34,0,0,1,.14.13.43.43,0,0,1,.07.24.69.69,0,0,1-.12.36,1.19,1.19,0,0,1-.36.35,2.22,2.22,0,0,1-.6.27A3,3,0,0,1,77,23.29Zm-.13-5.52a1.07,1.07,0,0,0-.94.5,3,3,0,0,0-.39,1.45H78a4.53,4.53,0,0,0-.06-.79,2.06,2.06,0,0,0-.2-.62,1,1,0,0,0-.37-.4A1.06,1.06,0,0,0,76.82,17.77Z" fill="#fff"/><path d="M82.21,23.29a3.58,3.58,0,0,1-.75-.07,1.78,1.78,0,0,1-.57-.22,1.07,1.07,0,0,1-.37-.37,1,1,0,0,1-.13-.51.84.84,0,0,1,.07-.37.69.69,0,0,1,.18-.23.63.63,0,0,1,.23-.12.78.78,0,0,1,.22,0,2.33,2.33,0,0,0,.06.54,1.2,1.2,0,0,0,.2.44,1,1,0,0,0,.37.3,1.29,1.29,0,0,0,.56.11,1.72,1.72,0,0,0,.52-.07,1.08,1.08,0,0,0,.38-.2.86.86,0,0,0,.23-.32,1,1,0,0,0,.08-.41.91.91,0,0,0-.06-.35.76.76,0,0,0-.21-.28,2.25,2.25,0,0,0-.42-.26l-.66-.31q-.42-.19-.74-.36a2.28,2.28,0,0,1-.52-.38,1.34,1.34,0,0,1-.31-.46,1.72,1.72,0,0,1-.1-.62,1.44,1.44,0,0,1,.15-.67,1.34,1.34,0,0,1,.42-.49,2,2,0,0,1,.66-.3,3.31,3.31,0,0,1,.85-.1,2.73,2.73,0,0,1,.69.08,1.71,1.71,0,0,1,.5.22.94.94,0,0,1,.31.32.81.81,0,0,1,.1.39.61.61,0,0,1-.21.48.87.87,0,0,1-.59.18,1.42,1.42,0,0,0-.23-.86.84.84,0,0,0-.72-.31,1.56,1.56,0,0,0-.48.06.85.85,0,0,0-.33.18.73.73,0,0,0-.19.28,1,1,0,0,0-.06.35.8.8,0,0,0,.08.36.82.82,0,0,0,.24.28,2.15,2.15,0,0,0,.42.25l.63.27a7,7,0,0,1,.75.36,2.26,2.26,0,0,1,.51.39,1.35,1.35,0,0,1,.3.47,1.76,1.76,0,0,1,.1.61,1.7,1.7,0,0,1-.16.75,1.47,1.47,0,0,1-.44.54,1.93,1.93,0,0,1-.68.33A3.44,3.44,0,0,1,82.21,23.29Z" fill="#fff"/><path d="M85.48,22.72l.35,0a.74.74,0,0,0,.29-.1.52.52,0,0,0,.2-.22.9.9,0,0,0,.07-.39V18.5a.9.9,0,0,0-.07-.39.55.55,0,0,0-.2-.23.71.71,0,0,0-.29-.11l-.35,0h0v-.46h2v4.65a1,1,0,0,0,.07.41.59.59,0,0,0,.19.24.71.71,0,0,0,.29.11l.35,0h.15v.46H85.34v-.46Zm.75-7.22a.93.93,0,0,1,0-.32.55.55,0,0,1,.13-.21.48.48,0,0,1,.2-.11.9.9,0,0,1,.25,0,.88.88,0,0,1,.24,0,.46.46,0,0,1,.2.11.6.6,0,0,1,.13.21,1,1,0,0,1,0,.64.6.6,0,0,1-.13.21.49.49,0,0,1-.2.12.81.81,0,0,1-.24,0,.83.83,0,0,1-.25,0,.51.51,0,0,1-.2-.12.55.55,0,0,1-.13-.21A.93.93,0,0,1,86.23,15.5Z" fill="#fff"/><path d="M94.61,17.51a.73.73,0,0,1,0,.22.52.52,0,0,1-.11.18.48.48,0,0,1-.18.12.68.68,0,0,1-.26,0A.53.53,0,0,0,94,18a.35.35,0,0,0-.06-.12.29.29,0,0,0-.11-.09.41.41,0,0,0-.18,0,.92.92,0,0,0-.25,0,.84.84,0,0,0-.22.1,2,2,0,0,1,.31.55,2.5,2.5,0,0,1,0,1.54,1.64,1.64,0,0,1-.37.6,1.67,1.67,0,0,1-.62.4,2.45,2.45,0,0,1-.87.14h-.57l-.2.12a.88.88,0,0,0-.17.15.65.65,0,0,0-.12.18.58.58,0,0,0,0,.23.4.4,0,0,0,.05.21.34.34,0,0,0,.14.13.64.64,0,0,0,.22.06h1.52a2.5,2.5,0,0,1,.84.12,1.51,1.51,0,0,1,.56.34,1.31,1.31,0,0,1,.32.52,2.1,2.1,0,0,1,.1.66,2,2,0,0,1-.17.85,1.66,1.66,0,0,1-.53.65,2.7,2.7,0,0,1-.91.41,5.18,5.18,0,0,1-1.3.14,2.87,2.87,0,0,1-1.72-.42,1.39,1.39,0,0,1-.57-1.18,1.32,1.32,0,0,1,.11-.56,1.27,1.27,0,0,1,.3-.41,1.62,1.62,0,0,1,.44-.28,2.31,2.31,0,0,1,.52-.16,1.06,1.06,0,0,1-.22-.13,1,1,0,0,1-.33-.45.91.91,0,0,1-.05-.32.94.94,0,0,1,.17-.57,1.81,1.81,0,0,1,.55-.46,1.42,1.42,0,0,1-.42-.27,1.65,1.65,0,0,1-.31-.39,1.91,1.91,0,0,1-.19-.48,2.1,2.1,0,0,1-.07-.53,2.63,2.63,0,0,1,.13-.85,1.62,1.62,0,0,1,1-1,2.68,2.68,0,0,1,.91-.14l.39,0,.36.08.3.12a1,1,0,0,1,.21.13l.19-.19a1.72,1.72,0,0,1,.24-.19,1.42,1.42,0,0,1,.29-.15,1,1,0,0,1,.34-.06.82.82,0,0,1,.29,0,.58.58,0,0,1,.2.12.49.49,0,0,1,.12.18A.59.59,0,0,1,94.61,17.51ZM90,24.15a1.53,1.53,0,0,0,.06.45.81.81,0,0,0,.23.36,1.11,1.11,0,0,0,.44.24,2.34,2.34,0,0,0,.69.09,4,4,0,0,0,1-.1A1.67,1.67,0,0,0,93,24.9a1,1,0,0,0,.32-.42,1.51,1.51,0,0,0,.09-.54,1,1,0,0,0-.07-.42.59.59,0,0,0-.21-.26.93.93,0,0,0-.35-.13,2.73,2.73,0,0,0-.48,0H91.18a2.49,2.49,0,0,0-.45,0,1,1,0,0,0-.39.15.79.79,0,0,0-.27.32A1.18,1.18,0,0,0,90,24.15Zm.64-5a1.8,1.8,0,0,0,.23,1,.88.88,0,0,0,.77.33,1.16,1.16,0,0,0,.45-.08.72.72,0,0,0,.3-.25,1.09,1.09,0,0,0,.17-.43,3.34,3.34,0,0,0,.05-.62,2.09,2.09,0,0,0-.23-1.1,1,1,0,0,0-1.52,0A2.11,2.11,0,0,0,90.61,19.18Z" fill="#fff"/><path d="M98.23,22.72v.46h-3v-.46h.09l.35,0a.7.7,0,0,0,.29-.11.59.59,0,0,0,.19-.24,1,1,0,0,0,.07-.41V18.5a.9.9,0,0,0-.07-.39.55.55,0,0,0-.2-.23.71.71,0,0,0-.29-.11l-.35,0h0v-.46h1.78l.14.89h.05a2.44,2.44,0,0,1,.36-.5,1.59,1.59,0,0,1,.4-.31,1.54,1.54,0,0,1,.45-.15,3.07,3.07,0,0,1,.5,0,2.23,2.23,0,0,1,.78.13,1.46,1.46,0,0,1,.58.39,1.73,1.73,0,0,1,.37.67,3.32,3.32,0,0,1,.13,1v2.6a1.15,1.15,0,0,0,.06.41.54.54,0,0,0,.17.24.63.63,0,0,0,.27.11l.34,0h0v.46H99.83v-3.8a2.86,2.86,0,0,0-.06-.64,1.27,1.27,0,0,0-.21-.47.89.89,0,0,0-.37-.29,1.43,1.43,0,0,0-.56-.1A1.26,1.26,0,0,0,98,18a1.16,1.16,0,0,0-.41.39,1.71,1.71,0,0,0-.22.57,3.31,3.31,0,0,0-.07.68V22a.9.9,0,0,0,.07.39.52.52,0,0,0,.2.22.75.75,0,0,0,.29.1l.35,0Z" fill="#fff"/><path d="M107.66,23.29a3.59,3.59,0,0,1-.75-.07,1.8,1.8,0,0,1-.57-.22,1.08,1.08,0,0,1-.37-.37,1,1,0,0,1-.13-.51.84.84,0,0,1,.07-.37.69.69,0,0,1,.18-.23.63.63,0,0,1,.23-.12.79.79,0,0,1,.22,0,2.39,2.39,0,0,0,.06.54,1.2,1.2,0,0,0,.2.44,1,1,0,0,0,.37.3,1.29,1.29,0,0,0,.56.11,1.72,1.72,0,0,0,.52-.07,1.08,1.08,0,0,0,.38-.2.87.87,0,0,0,.23-.32,1,1,0,0,0,.08-.41.91.91,0,0,0-.06-.35.75.75,0,0,0-.21-.28,2.27,2.27,0,0,0-.42-.26l-.66-.31c-.28-.13-.53-.25-.74-.36a2.3,2.3,0,0,1-.52-.38,1.33,1.33,0,0,1-.31-.46,1.69,1.69,0,0,1-.1-.62,1.46,1.46,0,0,1,.15-.67,1.34,1.34,0,0,1,.42-.49,2,2,0,0,1,.66-.3,3.31,3.31,0,0,1,.85-.1,2.74,2.74,0,0,1,.69.08,1.73,1.73,0,0,1,.5.22.94.94,0,0,1,.31.32.8.8,0,0,1,.1.39.61.61,0,0,1-.21.48.87.87,0,0,1-.59.18,1.42,1.42,0,0,0-.23-.86.84.84,0,0,0-.72-.31,1.56,1.56,0,0,0-.48.06.86.86,0,0,0-.33.18.71.71,0,0,0-.18.28,1,1,0,0,0-.06.35.82.82,0,0,0,.08.36.83.83,0,0,0,.24.28,2.21,2.21,0,0,0,.42.25l.63.27a7.11,7.11,0,0,1,.75.36,2.27,2.27,0,0,1,.51.39,1.35,1.35,0,0,1,.3.47,1.76,1.76,0,0,1,.1.61,1.71,1.71,0,0,1-.16.75,1.49,1.49,0,0,1-.44.54,1.93,1.93,0,0,1-.69.33A3.44,3.44,0,0,1,107.66,23.29Z" fill="#fff"/><path d="M113.45,22.71l.37,0,.34-.05v.48l-.18.06-.24.06-.28,0h-.27a2.55,2.55,0,0,1-.72-.09,1.11,1.11,0,0,1-.49-.29,1.22,1.22,0,0,1-.29-.53,3,3,0,0,1-.09-.8V17.91h-.84v-.44a1.38,1.38,0,0,0,.44-.08,1.06,1.06,0,0,0,.42-.27,1.59,1.59,0,0,0,.3-.49,4,4,0,0,0,.2-.71h.5v1.35h1.44v.63h-1.44v3.71a1.25,1.25,0,0,0,.23.83A.77.77,0,0,0,113.45,22.71Z" fill="#fff"/><path d="M120.43,22a.88.88,0,0,0,.07.39.51.51,0,0,0,.2.22.74.74,0,0,0,.29.1l.35,0h0v.46h-1.75l-.14-.89h-.05a2,2,0,0,1-.37.5,1.69,1.69,0,0,1-.43.3,1.72,1.72,0,0,1-.47.15,3.26,3.26,0,0,1-.52,0,2.26,2.26,0,0,1-.77-.12,1.38,1.38,0,0,1-.57-.39,1.76,1.76,0,0,1-.35-.67,3.47,3.47,0,0,1-.12-1V18.5a.88.88,0,0,0-.07-.39.55.55,0,0,0-.2-.23.72.72,0,0,0-.29-.11l-.35,0h0v-.46h2v3.8a3.21,3.21,0,0,0,.06.64,1.29,1.29,0,0,0,.19.47.83.83,0,0,0,.35.29,1.37,1.37,0,0,0,.56.1,1.39,1.39,0,0,0,.63-.13,1.15,1.15,0,0,0,.43-.36,1.58,1.58,0,0,0,.25-.56,3,3,0,0,0,.08-.73V18.54a1,1,0,0,0-.07-.42.57.57,0,0,0-.19-.24.68.68,0,0,0-.28-.11,2.1,2.1,0,0,0-.35,0h0v-.46h2Z" fill="#fff"/><path d="M127.4,22a.89.89,0,0,0,.07.39.56.56,0,0,0,.2.23.7.7,0,0,0,.29.1l.35,0h.09v.46h-1.86l-.12-1h0a2.61,2.61,0,0,1-.28.45,1.7,1.7,0,0,1-.36.34,1.63,1.63,0,0,1-.46.22,2,2,0,0,1-.58.08,2.41,2.41,0,0,1-1-.18,1.73,1.73,0,0,1-.7-.55,2.58,2.58,0,0,1-.43-.95,5.62,5.62,0,0,1-.15-1.36,5.72,5.72,0,0,1,.15-1.37,2.62,2.62,0,0,1,.43-1,1.73,1.73,0,0,1,.7-.56,2.41,2.41,0,0,1,1-.18,2.22,2.22,0,0,1,.57.07,1.74,1.74,0,0,1,.46.2,1.71,1.71,0,0,1,.37.31,2,2,0,0,1,.28.39h.06c0-.18,0-.35,0-.5s0-.27,0-.41,0-.23,0-.3V16a.89.89,0,0,0-.07-.39.57.57,0,0,0-.2-.23.71.71,0,0,0-.29-.1l-.35,0h-.09v-.46h2Zm-2.53.61a1.61,1.61,0,0,0,.72-.14A1.11,1.11,0,0,0,126,22a2.07,2.07,0,0,0,.25-.73,6.53,6.53,0,0,0,.07-1,6.37,6.37,0,0,0-.07-1,2.15,2.15,0,0,0-.25-.74,1.18,1.18,0,0,0-.46-.45,1.53,1.53,0,0,0-.73-.16,1.1,1.1,0,0,0-1,.61,2.42,2.42,0,0,0-.24.74,6.18,6.18,0,0,0-.08,1,3.76,3.76,0,0,0,.32,1.75A1.1,1.1,0,0,0,124.87,22.58Z" fill="#fff"/><path d="M129.2,22.72l.35,0a.74.74,0,0,0,.29-.1.52.52,0,0,0,.2-.22.9.9,0,0,0,.07-.39V18.5a.9.9,0,0,0-.07-.39.55.55,0,0,0-.2-.23.71.71,0,0,0-.29-.11l-.35,0h0v-.46h2v4.65a1,1,0,0,0,.07.41.59.59,0,0,0,.19.24.71.71,0,0,0,.29.11l.35,0h.15v.46h-3.13v-.46Zm.75-7.22a.93.93,0,0,1,0-.32.55.55,0,0,1,.13-.21.48.48,0,0,1,.2-.11.9.9,0,0,1,.25,0,.88.88,0,0,1,.24,0,.46.46,0,0,1,.2.11.6.6,0,0,1,.13.21,1,1,0,0,1,0,.64A.6.6,0,0,1,131,16a.49.49,0,0,1-.2.12.81.81,0,0,1-.24,0,.83.83,0,0,1-.25,0,.51.51,0,0,1-.2-.12.55.55,0,0,1-.13-.21A.93.93,0,0,1,129.95,15.5Z" fill="#fff"/><path d="M138.28,20.22a3.45,3.45,0,0,1-.66,2.31,2.41,2.41,0,0,1-1.93.76,2.87,2.87,0,0,1-1.07-.19,2.05,2.05,0,0,1-.8-.57,2.6,2.6,0,0,1-.5-1,4.69,4.69,0,0,1-.17-1.35,3.42,3.42,0,0,1,.65-2.29,2.42,2.42,0,0,1,1.93-.75,2.9,2.9,0,0,1,1.07.19,2,2,0,0,1,.8.56,2.57,2.57,0,0,1,.5,1A4.63,4.63,0,0,1,138.28,20.22Zm-4.07,0a6.41,6.41,0,0,0,.08,1.08,2.38,2.38,0,0,0,.26.78,1.23,1.23,0,0,0,.47.48,1.42,1.42,0,0,0,.7.16,1.4,1.4,0,0,0,.7-.16,1.21,1.21,0,0,0,.46-.48,2.38,2.38,0,0,0,.25-.78,6.53,6.53,0,0,0,.08-1.08,6.32,6.32,0,0,0-.08-1.07,2.36,2.36,0,0,0-.26-.77,1.19,1.19,0,0,0-.46-.46,1.65,1.65,0,0,0-1.4,0,1.19,1.19,0,0,0-.46.46,2.36,2.36,0,0,0-.26.77A6.32,6.32,0,0,0,134.21,20.22Z" fill="#fff"/></svg>